{
  "accessors": [
    {
      "bufferView": 2,
      "componentType": 5126,
      "count": 1336,
      "max": [
        10.574053764343262,
        9,
        2.7049500942230225
      ],
      "min": [
        -10.574053764343262,
        -8.0474033355712891,
        -0.28038701415061951
      ],
      "type": "VEC3"
    },
    {
      "bufferView": 2,
      "byteOffset": 16032,
      "componentType": 5126,
      "count": 1336,
      "max": [
        0.99999022483825684,
        1,
        1
      ],
      "min": [
        -0.99999022483825684,
        -1,
        -1
      ],
      "type": "VEC3"
    },
    {
      "bufferView": 3,
      "componentType": 5126,
      "count": 1336,
      "max": [
        1,
        1,
        1,
        1
      ],
      "min": [
        -1,
        -1,
        -1,
        -1
      ],
      "type": "VEC4"
    },
    {
      "bufferView": 1,
      "componentType": 5126,
      "count": 1336,
      "max": [
        1,
        1
      ],
      "min": [
        0,
        0
      ],
      "type": "VEC2"
    },
    {
      "bufferView": 0,
      "componentType": 5125,
      "count": 3648,
      "max": [
        1335
      ],
      "min": [
        0
      ],
      "type": "SCALAR"
    }
  ],
  "asset": {
    "extras": {
      "author": "Anwar Ali (https://sketchfab.com/Anwarali)",
      "license": "CC-BY-4.0 (http://creativecommons.org/licenses/by/4.0/)",
      "source": "https://sketchfab.com/3d-models/open-book-7a4b9e1743714d6dab410e22e5884bf1",
      "title": "Open Book"
    },
    "generator": "Sketchfab-6.33.0",
    "version": "2.0"
  },
  "bufferViews": [
    {
      "buffer": 0,
      "byteLength": 14592,
      "byteOffset": 0,
      "name": "floatBufferViews",
      "target": 34963
    },
    {
      "buffer": 0,
      "byteLength": 10688,
      "byteOffset": 14592,
      "byteStride": 8,
      "name": "floatBufferViews",
      "target": 34962
    },
    {
      "buffer": 0,
      "byteLength": 32064,
      "byteOffset": 25280,
      "byteStride": 12,
      "name": "floatBufferViews",
      "target": 34962
    },
    {
      "buffer": 0,
      "byteLength": 21376,
      "byteOffset": 57344,
      "byteStride": 16,
      "name": "floatBufferViews",
      "target": 34962
    }
  ],
  "buffers": [
    {
      "byteLength": 78720,
      "uri": "notebook.bin"
    }
  ],
  "materials": [
    {
      "doubleSided": true,
      "emissiveFactor": [
        0,
        0,
        0
      ],
      "name": "Scene_-_Root",
      "pbrMetallicRoughness": {
        "baseColorFactor": [
          0.68317165769449584,
          0.53167722032507569,
          0.29528248272084051,
          1
        ],
        "metallicFactor": 0.20303987706982118,
        "roughnessFactor": 0.80052415379938102
      }
    }
  ],
  "meshes": [
    {
      "primitives": [
        {
          "attributes": {
            "NORMAL": 1,
            "POSITION": 0,
            "TANGENT": 2,
            "TEXCOORD_0": 3
          },
          "indices": 4,
          "material": 0,
          "mode": 4
        }
      ]
    }
  ],
  "nodes": [
    {
      "children": [
        1
      ],
      "name": "RootNode (gltf orientation matrix)",
      "rotation": [
        -0.70710678118654746,
        -0,
        -0,
        0.70710678118654757
      ]
    },
    {
      "children": [
        2
      ],
      "name": "RootNode (model correction matrix)"
    },
    {
      "children": [
        3
      ],
      "name": "6a2fad798a6343fdb99e4159199474c4.obj.cleaner.materialmerger.gles"
    },
    {
      "mesh": 0,
      "name": "notebook"
    }
  ],
  "scene": 0,
  "scenes": [
    {
      "name": "OSG_Scene",
      "nodes": [
        0
      ]
    }
  ]
}

