{
  "accessors": [
    {
      "bufferView": 2,
      "componentType": 5126,
      "count": 587,
      "max": [
        16.920846939086914,
        12.642062187194824,
        5.2337350845336914
      ],
      "min": [
        -16.916826248168945,
        -12.147970199584961,
        0
      ],
      "type": "VEC3"
    },
    {
      "bufferView": 2,
      "byteOffset": 7044,
      "componentType": 5126,
      "count": 587,
      "max": [
        1,
        0.99996161460876465,
        1
      ],
      "min": [
        -1,
        -0.99998998641967773,
        -1
      ],
      "type": "VEC3"
    },
    {
      "bufferView": 3,
      "componentType": 5126,
      "count": 587,
      "max": [
        1,
        1,
        0.51375830173492432,
        1
      ],
      "min": [
        -1,
        -1,
        -0.99996316432952881,
        -1
      ],
      "type": "VEC4"
    },
    {
      "bufferView": 1,
      "componentType": 5126,
      "count": 587,
      "max": [
        0.99799996614456177,
        0.99767565727233887
      ],
      "min": [
        0.0020000000949949026,
        0.0020000000949949026
      ],
      "type": "VEC2"
    },
    {
      "bufferView": 0,
      "componentType": 5125,
      "count": 1854,
      "max": [
        586
      ],
      "min": [
        0
      ],
      "type": "SCALAR"
    },
    {
      "bufferView": 4,
      "componentType": 5126,
      "count": 1,
      "max": [
        0
      ],
      "min": [
        0
      ],
      "type": "SCALAR"
    },
    {
      "bufferView": 5,
      "componentType": 5126,
      "count": 1,
      "max": [
        -4.3297803017132772e-17,
        0.70710676908493042,
        -0.70710676908493042,
        4.3297803017132772e-17
      ],
      "min": [
        -4.3297803017132772e-17,
        0.70710676908493042,
        -0.70710676908493042,
        4.3297803017132772e-17
      ],
      "type": "VEC4"
    }
  ],
  "animations": [
    {
      "channels": [
        {
          "sampler": 0,
          "target": {
            "node": 5,
            "path": "rotation"
          }
        }
      ],
      "name": "Take 001",
      "samplers": [
        {
          "input": 5,
          "interpolation": "LINEAR",
          "output": 6
        }
      ]
    }
  ],
  "asset": {
    "extras": {
      "author": "FlukierJupiter (https://sketchfab.com/FlukierJupiter)",
      "license": "CC-BY-4.0 (http://creativecommons.org/licenses/by/4.0/)",
      "source": "https://sketchfab.com/models/1e822119a75a4460b40c6f4001840743",
      "title": "Journal"
    },
    "generator": "Sketchfab-3.19.3",
    "version": "2.0"
  },
  "bufferViews": [
    {
      "buffer": 0,
      "byteLength": 7416,
      "byteOffset": 0,
      "name": "floatBufferViews",
      "target": 34963
    },
    {
      "buffer": 0,
      "byteLength": 4696,
      "byteOffset": 7416,
      "byteStride": 8,
      "name": "floatBufferViews",
      "target": 34962
    },
    {
      "buffer": 0,
      "byteLength": 14088,
      "byteOffset": 12112,
      "byteStride": 12,
      "name": "floatBufferViews",
      "target": 34962
    },
    {
      "buffer": 0,
      "byteLength": 9392,
      "byteOffset": 26200,
      "byteStride": 16,
      "name": "floatBufferViews",
      "target": 34962
    },
    {
      "buffer": 0,
      "byteLength": 4,
      "byteOffset": 35592,
      "name": "floatBufferViews"
    },
    {
      "buffer": 0,
      "byteLength": 16,
      "byteOffset": 35596,
      "byteStride": 16,
      "name": "floatBufferViews"
    }
  ],
  "buffers": [
    {
      "byteLength": 35612,
      "uri": "notebook.bin"
    }
  ],
  
  "materials": [
    {
      "doubleSided": true,
      "name": "01_-_Default",
      
      
      "pbrMetallicRoughness": {
        "baseColorFactor": [
          1,
          1,
          1,
          1
        ],
        
        "metallicFactor": 0,
        
        "roughnessFactor": 1
      }
    }
  ],
  "meshes": [
    {
      "name": "Book_LP_01 - Default_0",
      "primitives": [
        {
          "attributes": {
            "NORMAL": 1,
            "POSITION": 0,
            "TANGENT": 2,
            "TEXCOORD_0": 3
          },
          "indices": 4,
          "material": 0,
          "mode": 4
        }
      ]
    }
  ],
  "nodes": [
    {
      "children": [
        1
      ],
      "name": "RootNode (gltf orientation matrix)",
      "rotation": [
        -0.70710678118654746,
        -0,
        -0,
        0.70710678118654757
      ]
    },
    {
      "children": [
        2
      ],
      "name": "RootNode (model correction matrix)"
    },
    {
      "children": [
        3
      ],
      "matrix": [
        1,
        0,
        0,
        0,
        0,
        0,
        1,
        0,
        0,
        -1,
        0,
        0,
        0,
        0,
        0,
        1
      ],
      "name": "33a030c054b94d73978b0a45dadb96ae.fbx"
    },
    {
      "children": [
        4
      ],
      "name": ""
    },
    {
      "children": [
        5
      ],
      "name": "RootNode"
    },
    {
      "children": [
        6
      ],
      "name": "Book_LP",
      "rotation": [
        3.0908623216419073e-08,
        0.7071068286895752,
        -0.7071068286895752,
        -3.0908623216419073e-08
      ],
      "scale": [
        0.95100581645965576,
        0.95100581645965576,
        0.95100581645965576
      ],
      "translation": [
        0,
        0,
        5.8810559266930795e-07
      ]
    },
    {
      "children": [
        7
      ],
      "matrix": [
        1,
        0,
        -0,
        0,
        0,
        1,
        0,
        0,
        0,
        0,
        1,
        0,
        -7.9981936096373829e-07,
        0,
        -5.2969636917114258,
        1
      ],
      "name": ""
    },
    {
      "mesh": 0,
      "name": "Book_LP_01 - Default_0"
    }
  ],
  "samplers": [
    {
      "magFilter": 9729,
      "minFilter": 9987,
      "wrapS": 10497,
      "wrapT": 10497
    }
  ],
  "scene": 0,
  "scenes": [
    {
      "name": "OSG_Scene",
      "nodes": [
        0
      ]
    }
  ]
  
}

